<svg width="189" height="59" viewBox="0 0 189 59" fill="none" xmlns="http://www.w3.org/2000/svg">
<path d="M37.8882 24.7321V28.472V29.9669V33.7068H41.0393V29.9669V28.472V24.7321H37.8882Z" fill="#FAB908"/>
<path d="M28.4353 29.9211C29.3057 29.9211 30.0113 29.2303 30.0113 28.3781C30.0113 27.526 29.3057 26.8352 28.4353 26.8352C27.565 26.8352 26.8594 27.526 26.8594 28.3781C26.8594 29.2303 27.565 29.9211 28.4353 29.9211Z" fill="#0066D9"/>
<path d="M28.4353 31.6039C29.3057 31.6039 30.0113 30.9132 30.0113 30.061C30.0113 29.2089 29.3057 28.5181 28.4353 28.5181C27.565 28.5181 26.8594 29.2089 26.8594 30.061C26.8594 30.9132 27.565 31.6039 28.4353 31.6039Z" fill="#0066D9"/>
<path d="M30.0113 28.3779H26.8594V30.0611H30.0113V28.3779Z" fill="#0066D9"/>
<path d="M50.4924 31.6039C51.3629 31.6039 52.0684 30.9132 52.0684 30.061C52.0684 29.2089 51.3629 28.5181 50.4924 28.5181C49.6221 28.5181 48.9165 29.2089 48.9165 30.061C48.9165 30.9132 49.6221 31.6039 50.4924 31.6039Z" fill="#4285F4"/>
<path d="M50.4924 29.9211C51.3629 29.9211 52.0684 29.2303 52.0684 28.3781C52.0684 27.526 51.3629 26.8352 50.4924 26.8352C49.6221 26.8352 48.9165 27.526 48.9165 28.3781C48.9165 29.2303 49.6221 29.9211 50.4924 29.9211Z" fill="#4285F4"/>
<path d="M48.9165 30.0613H52.0684V28.3781H48.9165V30.0613Z" fill="#4285F4"/>
<path d="M33.8782 34.9698C34.7485 34.9698 35.4541 34.279 35.4541 33.4269C35.4541 32.5747 34.7485 31.8839 33.8782 31.8839C33.0078 31.8839 32.3022 32.5747 32.3022 33.4269C32.3022 34.279 33.0078 34.9698 33.8782 34.9698Z" fill="#EA4335"/>
<path d="M33.8782 36.6526C34.7485 36.6526 35.4541 35.9618 35.4541 35.1097C35.4541 34.2575 34.7485 33.5667 33.8782 33.5667C33.0078 33.5667 32.3022 34.2575 32.3022 35.1097C32.3022 35.9618 33.0078 36.6526 33.8782 36.6526Z" fill="#EA4335"/>
<path d="M35.4541 33.4265H32.3022V35.1097H35.4541V33.4265Z" fill="#EA4335"/>
<path d="M33.8782 24.8728C34.7485 24.8728 35.4541 24.1821 35.4541 23.3299C35.4541 22.4778 34.7485 21.787 33.8782 21.787C33.0078 21.787 32.3022 22.4778 32.3022 23.3299C32.3022 24.1821 33.0078 24.8728 33.8782 24.8728Z" fill="#EA4335"/>
<path d="M33.8782 30.3417C34.7485 30.3417 35.4541 29.651 35.4541 28.7988C35.4541 27.9467 34.7485 27.2559 33.8782 27.2559C33.0078 27.2559 32.3022 27.9467 32.3022 28.7988C32.3022 29.651 33.0078 30.3417 33.8782 30.3417Z" fill="#EA4335"/>
<path d="M35.4533 23.3293H32.3022V28.8334H35.4533V23.3293Z" fill="#EA4335"/>
<path d="M45.0501 26.5559C45.9204 26.5559 46.626 25.8651 46.626 25.0129C46.626 24.1608 45.9204 23.47 45.0501 23.47C44.1797 23.47 43.4741 24.1608 43.4741 25.0129C43.4741 25.8651 44.1797 26.5559 45.0501 26.5559Z" fill="#34A853"/>
<path d="M45.0501 24.8728C45.9204 24.8728 46.626 24.1821 46.626 23.3299C46.626 22.4778 45.9204 21.787 45.0501 21.787C44.1797 21.787 43.4741 22.4778 43.4741 23.3299C43.4741 24.1821 44.1797 24.8728 45.0501 24.8728Z" fill="#34A853"/>
<path d="M43.4736 25.0127H46.6256V23.3295H43.4736V25.0127Z" fill="#34A853"/>
<path d="M39.4641 21.6478C40.3345 21.6478 41.0401 20.957 41.0401 20.1048C41.0401 19.2527 40.3345 18.5619 39.4641 18.5619C38.5938 18.5619 37.8882 19.2527 37.8882 20.1048C37.8882 20.957 38.5938 21.6478 39.4641 21.6478Z" fill="#FAB908"/>
<path d="M39.4641 19.9648C40.3345 19.9648 41.0401 19.274 41.0401 18.4218C41.0401 17.5697 40.3345 16.8789 39.4641 16.8789C38.5938 16.8789 37.8882 17.5697 37.8882 18.4218C37.8882 19.274 38.5938 19.9648 39.4641 19.9648Z" fill="#FAB908"/>
<path d="M37.8882 20.1047H41.0401V18.4215H37.8882V20.1047Z" fill="#FAB908"/>
<path d="M39.4641 41.5603C40.3345 41.5603 41.0401 40.8695 41.0401 40.0173C41.0401 39.1652 40.3345 38.4744 39.4641 38.4744C38.5938 38.4744 37.8882 39.1652 37.8882 40.0173C37.8882 40.8695 38.5938 41.5603 39.4641 41.5603Z" fill="#FAB908"/>
<path d="M39.4641 39.8776C40.3345 39.8776 41.0401 39.1868 41.0401 38.3347C41.0401 37.4825 40.3345 36.7917 39.4641 36.7917C38.5938 36.7917 37.8882 37.4825 37.8882 38.3347C37.8882 39.1868 38.5938 39.8776 39.4641 39.8776Z" fill="#FAB908"/>
<path d="M37.8882 40.0176H41.0401V38.3344H37.8882V40.0176Z" fill="#FAB908"/>
<path d="M45.0501 36.6526C45.9204 36.6526 46.626 35.9618 46.626 35.1097C46.626 34.2575 45.9204 33.5667 45.0501 33.5667C44.1797 33.5667 43.4741 34.2575 43.4741 35.1097C43.4741 35.9618 44.1797 36.6526 45.0501 36.6526Z" fill="#34A853"/>
<path d="M45.0501 31.1834C45.9204 31.1834 46.626 30.4926 46.626 29.6405C46.626 28.7883 45.9204 28.0975 45.0501 28.0975C44.1797 28.0975 43.4741 28.7883 43.4741 29.6405C43.4741 30.4926 44.1797 31.1834 45.0501 31.1834Z" fill="#34A853"/>
<path d="M43.4736 35.109H46.6247V29.6399H43.4736V35.109Z" fill="#34A853"/>
<path d="M39.4641 26.2752C40.3345 26.2752 41.0401 25.5844 41.0401 24.7323C41.0401 23.8802 40.3345 23.1893 39.4641 23.1893C38.5938 23.1893 37.8882 23.8802 37.8882 24.7323C37.8882 25.5844 38.5938 26.2752 39.4641 26.2752Z" fill="#FAB908"/>
<path d="M39.4641 35.2502C40.3345 35.2502 41.0401 34.5594 41.0401 33.7072C41.0401 32.8551 40.3345 32.1643 39.4641 32.1643C38.5938 32.1643 37.8882 32.8551 37.8882 33.7072C37.8882 34.5594 38.5938 35.2502 39.4641 35.2502Z" fill="#FAB908"/>
<path fill-rule="evenodd" clip-rule="evenodd" d="M110.085 33.0904H108.773V23.0945H112.253C113.118 23.0945 113.866 23.376 114.498 23.9391C115.131 24.5022 115.447 25.2118 115.447 26.0681C115.447 26.9244 115.131 27.634 114.498 28.1971C113.866 28.7602 113.118 29.0418 112.253 29.0418H110.085V33.0904ZM110.085 27.8132H112.281C112.833 27.8132 113.275 27.6317 113.607 27.2688C113.94 26.9058 114.107 26.5055 114.107 26.0681C114.107 25.6307 113.94 25.2305 113.607 24.8675C113.275 24.5045 112.833 24.323 112.281 24.323H110.085V27.8132ZM116.535 27.0733C117.209 26.3752 118.07 26.0262 119.116 26.0262C120.162 26.0262 121.022 26.3729 121.696 27.0663C122.371 27.7597 122.709 28.6276 122.709 29.67C122.709 30.7124 122.371 31.5803 121.696 32.2737C121.022 32.9671 120.162 33.3137 119.116 33.3137C118.07 33.3137 117.209 32.9671 116.535 32.2737C115.86 31.5803 115.522 30.7124 115.522 29.67C115.522 28.6276 115.86 27.762 116.535 27.0733ZM117.504 31.4709C117.961 31.9177 118.498 32.1411 119.116 32.1411C119.733 32.1411 120.268 31.9154 120.72 31.4639C121.171 31.0126 121.397 30.4146 121.397 29.67C121.397 28.9254 121.171 28.3274 120.72 27.876C120.268 27.4246 119.733 27.1989 119.116 27.1989C118.498 27.1989 117.963 27.4246 117.511 27.876C117.06 28.3274 116.834 28.9254 116.834 29.67C116.834 30.4146 117.057 31.0149 117.504 31.4709ZM126.663 33.3137C125.76 33.3137 124.98 32.9647 124.324 32.2667C123.669 31.5687 123.34 30.7031 123.34 29.67C123.34 28.6369 123.669 27.7713 124.324 27.0733C124.98 26.3752 125.76 26.0262 126.663 26.0262C127.195 26.0262 127.673 26.138 128.096 26.3613C128.519 26.5847 128.835 26.8639 129.044 27.1989H129.101L129.044 26.2496V23.0945H130.356V33.0904H129.101V32.1411H129.044C128.835 32.4761 128.519 32.7553 128.096 32.9787C127.673 33.2021 127.195 33.3137 126.663 33.3137ZM126.877 32.1411C127.494 32.1411 128.02 31.9177 128.452 31.4709C128.885 31.0242 129.101 30.4239 129.101 29.67C129.101 28.9161 128.885 28.3158 128.452 27.8691C128.02 27.4223 127.494 27.1989 126.877 27.1989C126.268 27.1989 125.745 27.4246 125.308 27.876C124.871 28.3274 124.652 28.9254 124.652 29.67C124.652 30.4146 124.871 31.0126 125.308 31.4639C125.745 31.9154 126.268 32.1411 126.877 32.1411ZM134.909 33.3137C133.863 33.3137 133.003 32.9671 132.328 32.2737C131.653 31.5803 131.315 30.7124 131.315 29.67C131.315 28.6276 131.653 27.7597 132.328 27.0663C133.003 26.3729 133.863 26.0262 134.909 26.0262C135.688 26.0262 136.335 26.2124 136.848 26.5847C137.361 26.957 137.737 27.427 137.974 27.9947L136.777 28.4833C136.415 27.627 135.765 27.1989 134.823 27.1989C134.243 27.1989 133.732 27.4317 133.29 27.897C132.848 28.3623 132.627 28.9533 132.627 29.67C132.627 30.3866 132.848 30.9777 133.29 31.443C133.732 31.9084 134.243 32.1411 134.823 32.1411C135.802 32.1411 136.477 31.7129 136.848 30.8567L138.017 31.3453C137.779 31.9037 137.397 32.3714 136.869 32.7483C136.342 33.1253 135.688 33.3137 134.909 33.3137ZM141.129 33.3137C140.389 33.3137 139.768 33.1043 139.269 32.6855C138.77 32.2667 138.52 31.7129 138.52 31.0242C138.52 30.2796 138.815 29.6956 139.404 29.2721C139.994 28.8486 140.721 28.6369 141.586 28.6369C142.356 28.6369 142.988 28.7765 143.482 29.0557V28.8603C143.482 28.3577 143.307 27.9552 142.955 27.6527C142.603 27.3502 142.171 27.1989 141.658 27.1989C141.277 27.1989 140.932 27.2873 140.623 27.4642C140.315 27.641 140.103 27.883 139.989 28.1901L138.791 27.6876C138.953 27.278 139.272 26.8988 139.747 26.5498C140.222 26.2007 140.849 26.0262 141.629 26.0262C142.522 26.0262 143.264 26.2822 143.854 26.7941C144.443 27.306 144.738 28.0273 144.738 28.958V33.0904H143.482V32.1411H143.425C142.903 32.9229 142.138 33.3137 141.129 33.3137ZM141.344 32.1411C141.886 32.1411 142.377 31.9432 142.819 31.5477C143.261 31.1522 143.482 30.6845 143.482 30.1447C143.112 29.8469 142.556 29.6979 141.814 29.6979C141.177 29.6979 140.697 29.8328 140.374 30.1028C140.051 30.3727 139.889 30.6891 139.889 31.0521C139.889 31.3871 140.037 31.6524 140.331 31.8479C140.626 32.0434 140.963 32.1411 141.344 32.1411ZM148.577 33.3137C147.798 33.3137 147.153 33.1276 146.645 32.7553C146.136 32.383 145.763 31.9177 145.525 31.3593L146.695 30.8846C147.066 31.7409 147.698 32.169 148.591 32.169C149 32.169 149.335 32.0806 149.596 31.9037C149.858 31.7269 149.989 31.4942 149.989 31.2057C149.989 30.7589 149.67 30.4565 149.033 30.2982L147.622 29.9631C147.175 29.8515 146.752 29.6398 146.352 29.328C145.954 29.0161 145.754 28.595 145.754 28.0645C145.754 27.4595 146.027 26.9686 146.574 26.5916C147.12 26.2147 147.769 26.0262 148.52 26.0262C149.138 26.0262 149.689 26.1635 150.174 26.4381C150.659 26.7127 151.006 27.1059 151.215 27.6178L150.074 28.0785C149.818 27.4735 149.285 27.171 148.477 27.171C148.088 27.171 147.759 27.2501 147.493 27.4083C147.227 27.5666 147.094 27.7807 147.094 28.0505C147.094 28.4414 147.403 28.7067 148.021 28.8463L149.404 29.1674C150.06 29.3163 150.545 29.5722 150.859 29.9353C151.173 30.2982 151.329 30.7078 151.329 31.1638C151.329 31.7781 151.073 32.2899 150.559 32.6995C150.046 33.109 149.385 33.3137 148.577 33.3137ZM155.255 33.2021C154.523 33.2021 153.964 33.0113 153.579 32.6297C153.194 32.2481 153.002 31.7083 153.002 31.0103V27.4223H151.775V26.2496H153.002V24.1555H154.313V26.2496H156.025V27.4223H154.313V30.9125C154.313 31.6571 154.627 32.0293 155.255 32.0293C155.492 32.0293 155.692 31.9921 155.853 31.9177L156.31 33.0205C156.025 33.1416 155.673 33.2021 155.255 33.2021ZM159.85 33.3137C159.07 33.3137 158.426 33.1276 157.918 32.7553C157.409 32.383 157.036 31.9177 156.799 31.3593L157.968 30.8846C158.338 31.7409 158.97 32.169 159.864 32.169C160.273 32.169 160.608 32.0806 160.87 31.9037C161.131 31.7269 161.261 31.4942 161.261 31.2057C161.261 30.7589 160.943 30.4565 160.306 30.2982L158.895 29.9631C158.448 29.8515 158.025 29.6398 157.626 29.328C157.226 29.0161 157.026 28.595 157.026 28.0645C157.026 27.4595 157.3 26.9686 157.847 26.5916C158.393 26.2147 159.042 26.0262 159.793 26.0262C160.411 26.0262 160.963 26.1635 161.447 26.4381C161.932 26.7127 162.279 27.1059 162.488 27.6178L161.347 28.0785C161.091 27.4735 160.558 27.171 159.75 27.171C159.36 27.171 159.032 27.2501 158.767 27.4083C158.5 27.5666 158.367 27.7807 158.367 28.0505C158.367 28.4414 158.676 28.7067 159.294 28.8463L160.677 29.1674C161.333 29.3163 161.818 29.5722 162.132 29.9353C162.445 30.2982 162.602 30.7078 162.602 31.1638C162.602 31.7781 162.345 32.2899 161.832 32.6995C161.319 33.109 160.658 33.3137 159.85 33.3137Z" fill="#14142B"/>
<path d="M58.9536 27.5832C58.9536 24.4203 61.6607 21.8572 64.8913 21.8572C66.6737 21.8572 67.9437 22.5443 68.9018 23.4387L67.7654 24.5403C67.0859 23.9077 66.1613 23.4169 64.8913 23.4169C62.5407 23.4169 60.7027 25.271 60.7027 27.5724C60.7027 29.8737 62.5407 31.7279 64.8913 31.7279C66.4175 31.7279 67.2864 31.128 67.8435 30.5826C68.3002 30.1355 68.601 29.492 68.7123 28.6194H64.8913V27.0597H70.2719C70.3277 27.3433 70.3611 27.6705 70.3611 28.0413C70.3611 29.2193 70.038 30.6699 68.9797 31.6952C67.9437 32.7422 66.6292 33.2984 64.8913 33.2984C61.6607 33.2984 58.9536 30.7354 58.9536 27.5832ZM74.65 26.0018C76.7332 26.0018 78.4265 27.5505 78.4265 29.6883C78.4265 31.8151 76.7332 33.3748 74.65 33.3748C72.5668 33.3748 70.8735 31.8151 70.8735 29.6883C70.8735 27.5505 72.5668 26.0018 74.65 26.0018ZM74.65 31.9133C75.7863 31.9133 76.7778 30.9971 76.7778 29.6774C76.7778 28.3468 75.7863 27.4415 74.65 27.4415C73.5026 27.4415 72.5223 28.3468 72.5223 29.6774C72.5223 30.9971 73.5137 31.9133 74.65 31.9133ZM82.8937 26.0018C84.9769 26.0018 86.6702 27.5505 86.6702 29.6883C86.6702 31.8151 84.9769 33.3748 82.8937 33.3748C80.8105 33.3748 79.1172 31.8151 79.1172 29.6883C79.1172 27.5505 80.8105 26.0018 82.8937 26.0018ZM82.8937 31.9133C84.03 31.9133 85.0214 30.9971 85.0214 29.6774C85.0214 28.3468 84.0412 27.4415 82.8937 27.4415C81.7463 27.4415 80.766 28.3468 80.766 29.6774C80.766 30.9971 81.7574 31.9133 82.8937 31.9133ZM93.0089 26.1218H94.5909V32.7422C94.5909 35.4689 92.9532 36.5814 91.0148 36.5814C89.1879 36.5814 88.085 35.3817 87.6728 34.4001L89.1099 33.8111C89.3661 34.411 89.99 35.1199 91.0037 35.1199C92.2403 35.1199 93.0089 34.3674 93.0089 32.9604V32.4259H92.9532C92.5856 32.8731 91.8726 33.2657 90.9703 33.2657C89.0876 33.2657 87.3609 31.6515 87.3609 29.5901C87.3609 27.5069 89.0876 25.8927 90.9703 25.8927C91.8726 25.8927 92.5856 26.2853 92.9532 26.7217H93.0089V26.1218ZM91.1151 31.8151C92.2403 31.8151 93.1314 30.888 93.1203 29.5901C93.1203 28.2922 92.2403 27.3433 91.1151 27.3433C89.9788 27.3433 89.0208 28.2922 89.0208 29.5901C89.0208 30.8772 89.9788 31.8151 91.1151 31.8151ZM95.716 33.1239V22.2935H97.3646V33.1239H95.716ZM101.899 31.9133C102.745 31.9133 103.324 31.5097 103.759 30.8989L105.04 31.7387C104.617 32.3386 103.625 33.3748 101.899 33.3748C99.7595 33.3748 98.1668 31.7497 98.1668 29.6883C98.1668 27.496 99.7822 26.0018 101.721 26.0018C103.67 26.0018 104.628 27.5178 104.94 28.3468L105.107 28.7612L100.071 30.8008C100.462 31.5315 101.052 31.9133 101.899 31.9133ZM101.776 27.4197C100.929 27.4197 99.7595 28.1504 99.8043 29.5683L103.169 28.205C102.99 27.736 102.433 27.4197 101.776 27.4197Z" fill="#14142B"/>
</svg>
