<svg width="163" height="15" viewBox="0 0 163 15" fill="none" xmlns="http://www.w3.org/2000/svg">
<mask id="path-1-outside-1_502_372" maskUnits="userSpaceOnUse" x="-0.226074" y="1.02075" width="13" height="13" fill="black">
<rect fill="white" x="-0.226074" y="1.02075" width="13" height="13"/>
<path d="M6.2585 2.02075C5.17374 2.02075 4.11335 2.34241 3.21141 2.94505C2.30951 3.54772 1.60654 4.4043 1.1914 5.40645C0.776297 6.40863 0.667686 7.5114 0.879323 8.57528C1.09093 9.6392 1.61327 10.6164 2.38031 11.3835C3.14734 12.1505 4.12461 12.6729 5.18851 12.8845C6.25241 13.0961 7.35516 12.9875 8.35732 12.5724C9.35951 12.1572 10.2161 11.4543 10.8187 10.5524C11.4214 9.65043 11.743 8.59005 11.743 7.50531C11.743 6.0507 11.1652 4.6557 10.1367 3.62715C9.10808 2.59857 7.71309 2.02075 6.2585 2.02075ZM8.77533 9.93025C8.75201 9.969 8.72118 10.0027 8.68471 10.0295C8.64821 10.0562 8.60677 10.0754 8.56277 10.086C8.5188 10.0966 8.47314 10.0984 8.42847 10.0911C8.3838 10.0839 8.34102 10.0679 8.3026 10.0441C7.01574 9.25616 5.39619 9.08107 3.48776 9.51441C3.44433 9.52478 3.39931 9.52642 3.35525 9.51921C3.31122 9.51203 3.26901 9.49617 3.23116 9.47257C3.19329 9.44895 3.16049 9.41805 3.13464 9.38165C3.1088 9.34525 3.09049 9.30408 3.08069 9.26054C3.07026 9.21686 3.0686 9.17154 3.07571 9.12719C3.08286 9.08284 3.09866 9.04036 3.12223 9.00212C3.14581 8.96392 3.17673 8.93073 3.21314 8.90447C3.24957 8.87821 3.29083 8.85938 3.33454 8.84908C5.42245 8.37197 7.21707 8.57769 8.66155 9.46189C8.7386 9.50901 8.79387 9.58477 8.81518 9.67254C8.83652 9.76034 8.8222 9.853 8.77533 9.93025ZM9.44505 8.43762C9.38388 8.53173 9.2889 8.59871 9.17975 8.62478C9.07059 8.65085 8.9556 8.63399 8.85851 8.57769C7.19422 7.64931 5.22948 7.41948 3.39583 7.93862C3.33878 7.97046 3.27532 7.98909 3.21014 7.99318C3.14492 7.99727 3.07964 7.98671 3.01905 7.96228C2.95846 7.93785 2.90412 7.9002 2.85999 7.85201C2.81587 7.80386 2.78307 7.74641 2.76402 7.68394C2.74497 7.62144 2.74015 7.55549 2.74991 7.49089C2.75968 7.4263 2.78377 7.36473 2.82043 7.31066C2.85709 7.25659 2.9054 7.21143 2.96178 7.17844C3.01819 7.14548 3.08123 7.12553 3.14632 7.12012C4.16979 6.8255 5.24182 6.73837 6.29943 6.86393C7.35704 6.98945 8.37892 7.32508 9.30498 7.85111C9.39907 7.91226 9.46604 8.00724 9.49211 8.11638C9.51818 8.22556 9.50133 8.34055 9.44505 8.43762ZM9.50194 6.88375C7.75109 5.83323 4.8228 5.73693 3.13321 6.24906C3.00319 6.28855 2.8628 6.27474 2.74296 6.21069C2.62312 6.14668 2.53362 6.03767 2.49415 5.90764C2.45468 5.77764 2.46847 5.63725 2.5325 5.51739C2.59651 5.39757 2.70553 5.30806 2.83555 5.2686C4.77465 4.68205 7.99183 4.79586 10.0272 5.99956C10.1318 6.07445 10.2045 6.18598 10.2306 6.31198C10.2568 6.43795 10.2345 6.56917 10.1683 6.67954C10.1021 6.78987 9.99678 6.87123 9.87333 6.90744C9.74985 6.94368 9.61725 6.93209 9.50194 6.875V6.88375Z"/>
</mask>
<path d="M6.2585 2.02075C5.17374 2.02075 4.11335 2.34241 3.21141 2.94505C2.30951 3.54772 1.60654 4.4043 1.1914 5.40645C0.776297 6.40863 0.667686 7.5114 0.879323 8.57528C1.09093 9.6392 1.61327 10.6164 2.38031 11.3835C3.14734 12.1505 4.12461 12.6729 5.18851 12.8845C6.25241 13.0961 7.35516 12.9875 8.35732 12.5724C9.35951 12.1572 10.2161 11.4543 10.8187 10.5524C11.4214 9.65043 11.743 8.59005 11.743 7.50531C11.743 6.0507 11.1652 4.6557 10.1367 3.62715C9.10808 2.59857 7.71309 2.02075 6.2585 2.02075ZM8.77533 9.93025C8.75201 9.969 8.72118 10.0027 8.68471 10.0295C8.64821 10.0562 8.60677 10.0754 8.56277 10.086C8.5188 10.0966 8.47314 10.0984 8.42847 10.0911C8.3838 10.0839 8.34102 10.0679 8.3026 10.0441C7.01574 9.25616 5.39619 9.08107 3.48776 9.51441C3.44433 9.52478 3.39931 9.52642 3.35525 9.51921C3.31122 9.51203 3.26901 9.49617 3.23116 9.47257C3.19329 9.44895 3.16049 9.41805 3.13464 9.38165C3.1088 9.34525 3.09049 9.30408 3.08069 9.26054C3.07026 9.21686 3.0686 9.17154 3.07571 9.12719C3.08286 9.08284 3.09866 9.04036 3.12223 9.00212C3.14581 8.96392 3.17673 8.93073 3.21314 8.90447C3.24957 8.87821 3.29083 8.85938 3.33454 8.84908C5.42245 8.37197 7.21707 8.57769 8.66155 9.46189C8.7386 9.50901 8.79387 9.58477 8.81518 9.67254C8.83652 9.76034 8.8222 9.853 8.77533 9.93025ZM9.44505 8.43762C9.38388 8.53173 9.2889 8.59871 9.17975 8.62478C9.07059 8.65085 8.9556 8.63399 8.85851 8.57769C7.19422 7.64931 5.22948 7.41948 3.39583 7.93862C3.33878 7.97046 3.27532 7.98909 3.21014 7.99318C3.14492 7.99727 3.07964 7.98671 3.01905 7.96228C2.95846 7.93785 2.90412 7.9002 2.85999 7.85201C2.81587 7.80386 2.78307 7.74641 2.76402 7.68394C2.74497 7.62144 2.74015 7.55549 2.74991 7.49089C2.75968 7.4263 2.78377 7.36473 2.82043 7.31066C2.85709 7.25659 2.9054 7.21143 2.96178 7.17844C3.01819 7.14548 3.08123 7.12553 3.14632 7.12012C4.16979 6.8255 5.24182 6.73837 6.29943 6.86393C7.35704 6.98945 8.37892 7.32508 9.30498 7.85111C9.39907 7.91226 9.46604 8.00724 9.49211 8.11638C9.51818 8.22556 9.50133 8.34055 9.44505 8.43762ZM9.50194 6.88375C7.75109 5.83323 4.8228 5.73693 3.13321 6.24906C3.00319 6.28855 2.8628 6.27474 2.74296 6.21069C2.62312 6.14668 2.53362 6.03767 2.49415 5.90764C2.45468 5.77764 2.46847 5.63725 2.5325 5.51739C2.59651 5.39757 2.70553 5.30806 2.83555 5.2686C4.77465 4.68205 7.99183 4.79586 10.0272 5.99956C10.1318 6.07445 10.2045 6.18598 10.2306 6.31198C10.2568 6.43795 10.2345 6.56917 10.1683 6.67954C10.1021 6.78987 9.99678 6.87123 9.87333 6.90744C9.74985 6.94368 9.61725 6.93209 9.50194 6.875V6.88375Z" fill="#1ED760"/>
<path d="M3.21141 2.94505L2.83054 2.37501L2.83052 2.37503L3.21141 2.94505ZM1.1914 5.40645L0.558026 5.14408L0.558016 5.1441L1.1914 5.40645ZM0.879323 8.57528L1.55172 8.44155L1.55172 8.44152L0.879323 8.57528ZM2.38031 11.3835L1.89554 11.8682L1.89555 11.8683L2.38031 11.3835ZM8.35732 12.5724L8.09496 11.939L8.09495 11.939L8.35732 12.5724ZM10.1367 3.62715L9.65189 4.11192V4.11192L10.1367 3.62715ZM8.77533 9.93025L8.18922 9.5746L8.18795 9.57671L8.77533 9.93025ZM8.68471 10.0295L9.08992 10.5825L9.09015 10.5823L8.68471 10.0295ZM8.56277 10.086L8.40236 9.41949L8.40225 9.41951L8.56277 10.086ZM8.3026 10.0441L8.66456 9.46181L8.66058 9.45937L8.3026 10.0441ZM3.48776 9.51441L3.33594 8.84582L3.32861 8.84757L3.48776 9.51441ZM3.35525 9.51921L3.46595 8.84264L3.46554 8.84257L3.35525 9.51921ZM3.23116 9.47257L2.86833 10.0543L2.86847 10.0543L3.23116 9.47257ZM3.08069 9.26054L3.74961 9.11007L3.7475 9.10125L3.08069 9.26054ZM3.07571 9.12719L2.39888 9.01812L2.3988 9.0186L3.07571 9.12719ZM3.12223 9.00212L2.53883 8.64205L2.5387 8.64227L3.12223 9.00212ZM3.21314 8.90447L2.81227 8.34831L2.81204 8.34848L3.21314 8.90447ZM3.33454 8.84908L3.18181 8.18072L3.17731 8.18178L3.33454 8.84908ZM8.66155 9.46189L8.30363 10.0466L8.30389 10.0468L8.66155 9.46189ZM8.81518 9.67254L8.14897 9.83432L8.14901 9.83449L8.81518 9.67254ZM9.44505 8.43762L10.0199 8.81122L10.0294 8.7966L10.0381 8.78151L9.44505 8.43762ZM8.85851 8.57769L9.20242 7.98452L9.19249 7.97898L8.85851 8.57769ZM3.39583 7.93862L3.20907 7.27898L3.13187 7.30084L3.06179 7.33994L3.39583 7.93862ZM3.21014 7.99318L3.25302 8.6774L3.25304 8.6774L3.21014 7.99318ZM2.85999 7.85201L3.36557 7.38898L3.36542 7.38881L2.85999 7.85201ZM2.76402 7.68394L2.10823 7.8838L2.10825 7.88389L2.76402 7.68394ZM2.96178 7.17844L2.61594 6.58649L2.61554 6.58673L2.96178 7.17844ZM3.14632 7.12012L3.20308 7.80334L3.27074 7.79772L3.33598 7.77894L3.14632 7.12012ZM6.29943 6.86393L6.21861 7.54471L6.21863 7.54472L6.29943 6.86393ZM9.30498 7.85111L9.67857 7.27628L9.6614 7.26512L9.64359 7.255L9.30498 7.85111ZM9.49211 8.11638L10.1589 7.95716L10.1589 7.95712L9.49211 8.11638ZM9.50194 6.88375L9.14921 7.47162L10.1875 8.09461V6.88375H9.50194ZM3.13321 6.24906L2.93434 5.59297L2.93397 5.59308L3.13321 6.24906ZM2.74296 6.21069L3.0661 5.60606L3.06598 5.60599L2.74296 6.21069ZM2.49415 5.90764L3.15017 5.70851L3.15015 5.70847L2.49415 5.90764ZM2.5325 5.51739L3.13718 5.84045L3.13721 5.8404L2.5325 5.51739ZM2.83555 5.2686L2.63706 4.61239L2.63646 4.61258L2.83555 5.2686ZM10.0272 5.99956L10.4263 5.4421L10.4019 5.42469L10.3762 5.40946L10.0272 5.99956ZM10.2306 6.31198L10.9019 6.17273L10.9019 6.1726L10.2306 6.31198ZM10.1683 6.67954L10.7562 7.03229L10.7562 7.03221L10.1683 6.67954ZM9.87333 6.90744L9.68038 6.24959L9.68026 6.24962L9.87333 6.90744ZM9.50194 6.875L9.80615 6.26062L8.81637 5.77052V6.875H9.50194ZM6.2585 1.33518C5.03815 1.33518 3.84522 1.69705 2.83054 2.37501L3.59229 3.51508C4.38148 2.98777 5.30933 2.70632 6.2585 2.70632V1.33518ZM2.83052 2.37503C1.81588 3.05303 1.02505 4.01667 0.558026 5.14408L1.82478 5.66882C2.18803 4.79192 2.80314 4.04241 3.59231 3.51507L2.83052 2.37503ZM0.558016 5.1441C0.0910249 6.27155 -0.0311641 7.51216 0.206929 8.70904L1.55172 8.44152C1.36654 7.51063 1.46157 6.54572 1.82479 5.6688L0.558016 5.1441ZM0.206925 8.70902C0.444981 9.90593 1.03262 11.0053 1.89554 11.8682L2.86508 10.8987C2.19392 10.2275 1.73687 9.37247 1.55172 8.44155L0.206925 8.70902ZM1.89555 11.8683C2.75846 12.7311 3.85788 13.3188 5.05476 13.5569L5.32226 12.2121C4.39135 12.0269 3.53623 11.5698 2.86507 10.8987L1.89555 11.8683ZM5.05476 13.5569C6.25164 13.7949 7.49224 13.6728 8.61968 13.2057L8.09495 11.939C7.21808 12.3022 6.25317 12.3972 5.32226 12.2121L5.05476 13.5569ZM8.61968 13.2058C9.74713 12.7387 10.7108 11.9479 11.3888 10.9332L10.2487 10.1715C9.72138 10.9607 8.97188 11.5757 8.09496 11.939L8.61968 13.2058ZM11.3888 10.9332C12.0667 9.91857 12.4286 8.72564 12.4286 7.50531H11.0575C11.0575 8.45446 10.776 9.38229 10.2487 10.1715L11.3888 10.9332ZM12.4286 7.50531C12.4286 5.86888 11.7785 4.2995 10.6214 3.14238L9.65189 4.11192C10.5519 5.01189 11.0575 6.23252 11.0575 7.50531H12.4286ZM10.6214 3.14238C9.46429 1.98524 7.89492 1.33518 6.2585 1.33518V2.70632C7.53127 2.70632 8.75188 3.21191 9.65189 4.11192L10.6214 3.14238ZM8.18795 9.57671C8.21159 9.53743 8.24268 9.50348 8.27927 9.47664L9.09015 10.5823C9.19969 10.502 9.29242 10.4006 9.36271 10.2838L8.18795 9.57671ZM8.2795 9.47647C8.31633 9.44949 8.35811 9.43013 8.40236 9.41949L8.72318 10.7526C8.85542 10.7207 8.98009 10.663 9.08992 10.5825L8.2795 9.47647ZM8.40225 9.41951C8.4467 9.40881 8.49274 9.40707 8.53771 9.41433L8.31924 10.768C8.45354 10.7896 8.5909 10.7844 8.72329 10.7525L8.40225 9.41951ZM8.53771 9.41433C8.58252 9.42156 8.62567 9.43765 8.66455 9.46182L7.94065 10.6263C8.05637 10.6982 8.18508 10.7463 8.31924 10.768L8.53771 9.41433ZM8.66058 9.45937C7.17885 8.55216 5.3634 8.3855 3.33595 8.84586L3.63956 10.183C5.42898 9.77665 6.85263 9.96016 7.94462 10.6287L8.66058 9.45937ZM3.32861 8.84757C3.37342 8.83688 3.42013 8.83514 3.46595 8.84264L3.24455 10.1958C3.3785 10.2177 3.51524 10.2127 3.6469 10.1813L3.32861 8.84757ZM3.46554 8.84257C3.51108 8.84999 3.55466 8.86637 3.59386 8.8908L2.86847 10.0543C2.98335 10.126 3.11136 10.1741 3.24495 10.1958L3.46554 8.84257ZM3.594 8.89089C3.63309 8.91527 3.66697 8.94719 3.69365 8.98477L2.57564 9.77853C2.65401 9.88892 2.75349 9.98263 2.86833 10.0543L3.594 8.89089ZM3.69365 8.98477C3.72058 9.0227 3.73949 9.06535 3.74955 9.11008L2.41183 9.41099C2.44149 9.54281 2.49702 9.6678 2.57564 9.77853L3.69365 8.98477ZM3.7475 9.10125C3.75815 9.14585 3.75972 9.19158 3.75263 9.23579L2.3988 9.0186C2.37748 9.15151 2.38236 9.28787 2.41388 9.41983L3.7475 9.10125ZM3.75255 9.23626C3.74539 9.28072 3.72952 9.32346 3.70577 9.36197L2.5387 8.64227C2.46779 8.75725 2.42033 8.88497 2.39888 9.01812L3.75255 9.23626ZM3.70563 9.36219C3.68175 9.40089 3.65063 9.4342 3.61423 9.46046L2.81204 8.34848C2.70283 8.42727 2.60988 8.52695 2.53883 8.64205L3.70563 9.36219ZM3.614 9.46063C3.5774 9.48701 3.53587 9.50598 3.49177 9.51638L3.17731 8.18178C3.04578 8.21277 2.92175 8.2694 2.81227 8.34831L3.614 9.46063ZM3.48727 9.51742C5.44933 9.06906 7.04984 9.27914 8.30363 10.0466L9.01947 8.87717C7.38431 7.87625 5.39557 7.67487 3.18182 8.18074L3.48727 9.51742ZM8.30389 10.0468C8.2262 9.99926 8.17048 9.9229 8.14897 9.83432L9.48139 9.51076C9.41725 9.24664 9.25101 9.01875 9.01921 8.87701L8.30389 10.0468ZM8.14901 9.83449C8.1275 9.74601 8.14194 9.65253 8.18922 9.5746L9.36144 10.2859C9.50246 10.0535 9.54555 9.77468 9.48135 9.51059L8.14901 9.83449ZM8.87022 8.06402C8.90493 8.01061 8.95878 7.97271 9.02048 7.95797L9.33901 9.29159C9.61902 9.22472 9.86283 9.05285 10.0199 8.81122L8.87022 8.06402ZM9.02048 7.95797C9.08236 7.94319 9.14747 7.95277 9.20237 7.9846L8.51464 9.17079C8.76373 9.31521 9.05882 9.35851 9.33901 9.29159L9.02048 7.95797ZM9.19249 7.97898C7.36955 6.96209 5.21751 6.71035 3.20907 7.27898L3.58259 8.59826C5.24145 8.1286 7.0189 8.33653 8.52453 9.17641L9.19249 7.97898ZM3.06179 7.33994C3.09424 7.32184 3.13027 7.31127 3.16723 7.30895L3.25304 8.6774C3.42037 8.66691 3.58333 8.61908 3.72988 8.53731L3.06179 7.33994ZM3.16725 7.30895C3.20413 7.30664 3.2411 7.31261 3.2754 7.32644L2.76269 8.59812C2.91818 8.6608 3.08571 8.68789 3.25302 8.6774L3.16725 7.30895ZM3.2754 7.32644C3.30964 7.34025 3.34049 7.3616 3.36557 7.38898L2.35442 8.31505C2.46775 8.43879 2.60727 8.53545 2.76269 8.59812L3.2754 7.32644ZM3.36542 7.38881C3.39046 7.41614 3.409 7.44865 3.41978 7.48399L2.10825 7.88389C2.15713 8.04418 2.24128 8.19159 2.35457 8.31521L3.36542 7.38881ZM3.41981 7.48409C3.43058 7.51942 3.43331 7.55677 3.42778 7.59335L2.07204 7.38844C2.04699 7.55421 2.05936 7.72345 2.10823 7.8838L3.41981 7.48409ZM3.42778 7.59335C3.42226 7.62992 3.40861 7.66479 3.38787 7.69539L2.25299 6.92593C2.15893 7.06466 2.0971 7.22268 2.07204 7.38844L3.42778 7.59335ZM3.38787 7.69539C3.36701 7.72615 3.33967 7.75163 3.30801 7.77015L2.61554 6.58673C2.47113 6.67123 2.34716 6.78703 2.25299 6.92593L3.38787 7.69539ZM3.30762 7.77039C3.27599 7.78886 3.24031 7.80024 3.20308 7.80334L3.08957 6.4369C2.92216 6.45081 2.76038 6.5021 2.61594 6.58649L3.30762 7.77039ZM3.33598 7.77894C4.27167 7.50958 5.25174 7.42993 6.21861 7.54471L6.38025 6.18314C5.23191 6.04681 4.06792 6.14141 2.95667 6.46131L3.33598 7.77894ZM6.21863 7.54472C7.18553 7.65947 8.11975 7.96631 8.96636 8.44722L9.64359 7.255C8.63809 6.68384 7.52856 6.31942 6.38023 6.18314L6.21863 7.54472ZM8.93139 8.42595C8.87795 8.39122 8.84004 8.33736 8.8253 8.27565L10.1589 7.95712C10.092 7.67713 9.92019 7.43331 9.67857 7.27628L8.93139 8.42595ZM8.82529 8.2756C8.81055 8.21389 8.82005 8.14878 8.85196 8.09374L10.0381 8.78151C10.1826 8.53233 10.2258 8.23722 10.1589 7.95716L8.82529 8.2756ZM9.85466 6.29588C8.85622 5.69681 7.57117 5.3931 6.34834 5.29695C5.12242 5.20056 3.87918 5.30658 2.93434 5.59297L3.33208 6.90515C4.07683 6.67941 5.14252 6.57751 6.24086 6.66387C7.34229 6.75047 8.39681 7.02017 9.14921 7.47162L9.85466 6.29588ZM2.93397 5.59308C2.97802 5.5797 3.02555 5.58439 3.0661 5.60606L2.41982 6.81533C2.70005 6.9651 3.02836 6.9974 3.33245 6.90504L2.93397 5.59308ZM3.06598 5.60599C3.10655 5.62767 3.13682 5.66456 3.15017 5.70851L1.83814 6.10676C1.93042 6.41077 2.13968 6.66569 2.41994 6.8154L3.06598 5.60599ZM3.15015 5.70847C3.1635 5.75244 3.15884 5.79991 3.13718 5.84045L1.92783 5.19433C1.77809 5.47459 1.74586 5.80284 1.83815 6.10681L3.15015 5.70847ZM3.13721 5.8404C3.11552 5.88101 3.07862 5.91128 3.03465 5.92462L2.63646 4.61258C2.33245 4.70484 2.0775 4.91412 1.92779 5.19439L3.13721 5.8404ZM3.03404 5.9248C3.9052 5.66129 5.10566 5.5459 6.33982 5.64606C7.5757 5.74636 8.77818 6.05738 9.67824 6.58966L10.3762 5.40946C9.24087 4.73804 7.81706 4.39031 6.45073 4.27942C5.08267 4.16839 3.705 4.28936 2.63706 4.61239L3.03404 5.9248ZM9.62816 6.55701C9.59278 6.53169 9.56822 6.49397 9.55937 6.45136L10.9019 6.1726C10.8407 5.87798 10.6709 5.61722 10.4263 5.4421L9.62816 6.55701ZM9.55934 6.45123C9.55049 6.40856 9.55803 6.36416 9.58041 6.32686L10.7562 7.03221C10.911 6.77418 10.963 6.46735 10.9019 6.17273L9.55934 6.45123ZM9.58046 6.32678C9.60289 6.2894 9.63855 6.26185 9.68038 6.24959L10.0663 7.56529C10.355 7.48061 10.6013 7.29033 10.7562 7.03229L9.58046 6.32678ZM9.68026 6.24962C9.72211 6.23734 9.76705 6.24126 9.80615 6.26062L9.19773 7.48938C9.46745 7.62293 9.7776 7.65003 10.0664 7.56526L9.68026 6.24962ZM8.81637 6.875V6.88375H10.1875V6.875H8.81637Z" fill="black" mask="url(#path-1-outside-1_502_372)"/>
<path d="M20.2317 11.1205C19.7006 11.1205 19.1855 11.0502 18.6864 10.9094C18.1937 10.7622 17.797 10.5735 17.4963 10.3431L18.0242 9.17216C18.3121 9.38331 18.6544 9.55288 19.0512 9.68085C19.4479 9.80882 19.8446 9.87281 20.2413 9.87281C20.6828 9.87281 21.0091 9.80882 21.2203 9.68085C21.4314 9.54648 21.537 9.37052 21.537 9.15296C21.537 8.993 21.473 8.86183 21.3451 8.75945C21.2235 8.65067 21.0635 8.56429 20.8652 8.5003C20.6732 8.43632 20.4109 8.36593 20.0781 8.28915C19.5662 8.16757 19.1471 8.046 18.8208 7.92442C18.4945 7.80285 18.2129 7.60769 17.9762 7.33895C17.7458 7.0702 17.6307 6.71188 17.6307 6.26398C17.6307 5.87366 17.7362 5.52173 17.9474 5.2082C18.1585 4.88827 18.4753 4.63552 18.8976 4.44996C19.3263 4.2644 19.8478 4.17162 20.4621 4.17162C20.8908 4.17162 21.3099 4.22281 21.7194 4.32519C22.1289 4.42756 22.4872 4.57473 22.7944 4.76669L22.3145 5.94724C21.6938 5.59532 21.0731 5.41935 20.4525 5.41935C20.0173 5.41935 19.6942 5.48974 19.4831 5.63051C19.2783 5.77128 19.1759 5.95684 19.1759 6.18719C19.1759 6.41754 19.2943 6.59031 19.5311 6.70548C19.7742 6.81426 20.1421 6.92304 20.6348 7.03181C21.1467 7.15339 21.5658 7.27496 21.8922 7.39654C22.2185 7.51811 22.4968 7.71007 22.7272 7.97241C22.9639 8.23476 23.0823 8.58988 23.0823 9.03779C23.0823 9.42171 22.9735 9.77363 22.756 10.0936C22.5448 10.4071 22.2249 10.6566 21.7962 10.8422C21.3675 11.0278 20.846 11.1205 20.2317 11.1205ZM26.4963 11.0822C25.9524 11.0822 25.4629 10.9702 25.0278 10.7462C24.5991 10.5159 24.2631 10.1991 24.02 9.79603C23.7768 9.39291 23.6553 8.93541 23.6553 8.42352C23.6553 7.91163 23.7768 7.45412 24.02 7.05101C24.2631 6.64789 24.5991 6.33436 25.0278 6.11041C25.4629 5.88006 25.9524 5.76488 26.4963 5.76488C27.0401 5.76488 27.5264 5.88006 27.9551 6.11041C28.3839 6.33436 28.7198 6.64789 28.9629 7.05101C29.2061 7.45412 29.3277 7.91163 29.3277 8.42352C29.3277 8.93541 29.2061 9.39291 28.9629 9.79603C28.7198 10.1991 28.3839 10.5159 27.9551 10.7462C27.5264 10.9702 27.0401 11.0822 26.4963 11.0822ZM26.4963 9.85362C26.8802 9.85362 27.1937 9.72564 27.4369 9.4697C27.6864 9.20735 27.8112 8.85863 27.8112 8.42352C27.8112 7.98841 27.6864 7.64288 27.4369 7.38694C27.1937 7.12459 26.8802 6.99342 26.4963 6.99342C26.1123 6.99342 25.7956 7.12459 25.5461 7.38694C25.2965 7.64288 25.1717 7.98841 25.1717 8.42352C25.1717 8.85863 25.2965 9.20735 25.5461 9.4697C25.7956 9.72564 26.1123 9.85362 26.4963 9.85362ZM32.8239 11.0822C32.2737 11.0822 31.7778 10.9702 31.3362 10.7462C30.9011 10.5159 30.5588 10.1991 30.3093 9.79603C30.0661 9.39291 29.9445 8.93541 29.9445 8.42352C29.9445 7.91163 30.0661 7.45412 30.3093 7.05101C30.5588 6.64789 30.9011 6.33436 31.3362 6.11041C31.7778 5.88006 32.2737 5.76488 32.8239 5.76488C33.3678 5.76488 33.8413 5.88006 34.2444 6.11041C34.6539 6.33436 34.9515 6.65749 35.137 7.0798L33.9757 7.70367C33.7069 7.23017 33.3198 6.99342 32.8143 6.99342C32.424 6.99342 32.1009 7.12139 31.8449 7.37734C31.589 7.63329 31.461 7.98201 31.461 8.42352C31.461 8.86502 31.589 9.21375 31.8449 9.4697C32.1009 9.72564 32.424 9.85362 32.8143 9.85362C33.3262 9.85362 33.7133 9.61687 33.9757 9.14337L35.137 9.77683C34.9515 10.1863 34.6539 10.5063 34.2444 10.7366C33.8413 10.967 33.3678 11.0822 32.8239 11.0822ZM35.9991 5.84166H37.4964V11.0054H35.9991V5.84166ZM36.7478 5.12182C36.4726 5.12182 36.2487 5.04183 36.0759 4.88187C35.9032 4.7219 35.8168 4.52354 35.8168 4.28679C35.8168 4.05004 35.9032 3.85169 36.0759 3.69172C36.2487 3.53175 36.4726 3.45177 36.7478 3.45177C37.0229 3.45177 37.2469 3.52856 37.4196 3.68212C37.5924 3.83569 37.6788 4.02765 37.6788 4.258C37.6788 4.50755 37.5924 4.7155 37.4196 4.88187C37.2469 5.04183 37.0229 5.12182 36.7478 5.12182ZM44.1265 5.84166V11.0054H42.6964V10.4103C42.3253 10.8582 41.7878 11.0822 41.084 11.0822C40.5977 11.0822 40.1562 10.9734 39.7594 10.7558C39.3691 10.5383 39.062 10.2279 38.838 9.82482C38.6141 9.42171 38.5021 8.95461 38.5021 8.42352C38.5021 7.89243 38.6141 7.42533 38.838 7.02221C39.062 6.6191 39.3691 6.30877 39.7594 6.09121C40.1562 5.87366 40.5977 5.76488 41.084 5.76488C41.743 5.76488 42.2581 5.97284 42.6292 6.38875V5.84166H44.1265ZM41.3431 9.85362C41.7206 9.85362 42.0342 9.72564 42.2837 9.4697C42.5333 9.20735 42.658 8.85863 42.658 8.42352C42.658 7.98841 42.5333 7.64288 42.2837 7.38694C42.0342 7.12459 41.7206 6.99342 41.3431 6.99342C40.9592 6.99342 40.6425 7.12459 40.3929 7.38694C40.1434 7.64288 40.0186 7.98841 40.0186 8.42352C40.0186 8.85863 40.1434 9.20735 40.3929 9.4697C40.6425 9.72564 40.9592 9.85362 41.3431 9.85362ZM47.3652 11.0822C46.7829 11.0822 46.3286 10.9286 46.0022 10.6215C45.6759 10.3079 45.5127 9.86641 45.5127 9.29693V3.88368H47.01V9.21055C47.01 9.42811 47.0644 9.59767 47.1732 9.71924C47.2884 9.83442 47.4483 9.89201 47.6531 9.89201C47.7299 9.89201 47.8067 9.88241 47.8834 9.86321C47.9666 9.84402 48.0306 9.82162 48.0754 9.79603L48.1426 10.9574C47.893 11.0406 47.6339 11.0822 47.3652 11.0822ZM54.9167 11.1205C54.2321 11.1205 53.6114 10.9734 53.0547 10.679C52.5044 10.3783 52.0693 9.96559 51.7494 9.4409C51.4359 8.90982 51.2791 8.31154 51.2791 7.64608C51.2791 6.98062 51.4359 6.38555 51.7494 5.86086C52.0693 5.32977 52.5044 4.91706 53.0547 4.62272C53.6114 4.32199 54.2353 4.17162 54.9263 4.17162C55.5086 4.17162 56.0333 4.274 56.5004 4.47875C56.9739 4.68351 57.3706 4.97785 57.6905 5.36177L56.6924 6.28317C56.238 5.75848 55.675 5.49614 55.0031 5.49614C54.5872 5.49614 54.2161 5.58892 53.8897 5.77448C53.5634 5.95364 53.3075 6.20639 53.1219 6.53272C52.9427 6.85905 52.8532 7.23017 52.8532 7.64608C52.8532 8.06199 52.9427 8.43312 53.1219 8.75945C53.3075 9.08578 53.5634 9.34172 53.8897 9.52728C54.2161 9.70645 54.5872 9.79603 55.0031 9.79603C55.675 9.79603 56.238 9.53048 56.6924 8.9994L57.6905 9.9208C57.3706 10.3111 56.9739 10.6087 56.5004 10.8134C56.0269 11.0182 55.499 11.1205 54.9167 11.1205ZM60.914 11.0822C60.3701 11.0822 59.8806 10.9702 59.4455 10.7462C59.0168 10.5159 58.6808 10.1991 58.4377 9.79603C58.1945 9.39291 58.073 8.93541 58.073 8.42352C58.073 7.91163 58.1945 7.45412 58.4377 7.05101C58.6808 6.64789 59.0168 6.33436 59.4455 6.11041C59.8806 5.88006 60.3701 5.76488 60.914 5.76488C61.4578 5.76488 61.9441 5.88006 62.3728 6.11041C62.8016 6.33436 63.1375 6.64789 63.3806 7.05101C63.6238 7.45412 63.7454 7.91163 63.7454 8.42352C63.7454 8.93541 63.6238 9.39291 63.3806 9.79603C63.1375 10.1991 62.8016 10.5159 62.3728 10.7462C61.9441 10.9702 61.4578 11.0822 60.914 11.0822ZM60.914 9.85362C61.2979 9.85362 61.6114 9.72564 61.8546 9.4697C62.1041 9.20735 62.2289 8.85863 62.2289 8.42352C62.2289 7.98841 62.1041 7.64288 61.8546 7.38694C61.6114 7.12459 61.2979 6.99342 60.914 6.99342C60.53 6.99342 60.2133 7.12459 59.9638 7.38694C59.7142 7.64288 59.5894 7.98841 59.5894 8.42352C59.5894 8.85863 59.7142 9.20735 59.9638 9.4697C60.2133 9.72564 60.53 9.85362 60.914 9.85362ZM71.3592 5.76488C72.0054 5.76488 72.5173 5.95684 72.8948 6.34076C73.2788 6.71828 73.4707 7.28776 73.4707 8.0492V11.0054H71.9734V8.27955C71.9734 7.87004 71.8871 7.5661 71.7143 7.36774C71.5479 7.16299 71.308 7.06061 70.9944 7.06061C70.6425 7.06061 70.3642 7.17578 70.1594 7.40613C69.9547 7.63009 69.8523 7.96602 69.8523 8.41392V11.0054H68.355V8.27955C68.355 7.46692 68.0287 7.06061 67.376 7.06061C67.0305 7.06061 66.7553 7.17578 66.5506 7.40613C66.3458 7.63009 66.2435 7.96602 66.2435 8.41392V11.0054H64.7462V5.84166H66.1763V6.43674C66.3682 6.21918 66.6018 6.05282 66.8769 5.93764C67.1585 5.82247 67.4656 5.76488 67.7983 5.76488C68.163 5.76488 68.4926 5.83847 68.7869 5.98563C69.0813 6.1264 69.318 6.33436 69.4972 6.6095C69.7083 6.34076 69.9739 6.1328 70.2938 5.98563C70.6201 5.83847 70.9753 5.76488 71.3592 5.76488ZM81.4258 5.76488C82.0721 5.76488 82.5839 5.95684 82.9615 6.34076C83.3454 6.71828 83.5373 7.28776 83.5373 8.0492V11.0054H82.0401V8.27955C82.0401 7.87004 81.9537 7.5661 81.7809 7.36774C81.6145 7.16299 81.3746 7.06061 81.0611 7.06061C80.7091 7.06061 80.4308 7.17578 80.226 7.40613C80.0213 7.63009 79.9189 7.96602 79.9189 8.41392V11.0054H78.4216V8.27955C78.4216 7.46692 78.0953 7.06061 77.4426 7.06061C77.0971 7.06061 76.822 7.17578 76.6172 7.40613C76.4124 7.63009 76.3101 7.96602 76.3101 8.41392V11.0054H74.8128V5.84166H76.2429V6.43674C76.4348 6.21918 76.6684 6.05282 76.9435 5.93764C77.2251 5.82247 77.5322 5.76488 77.8649 5.76488C78.2297 5.76488 78.5592 5.83847 78.8535 5.98563C79.1479 6.1264 79.3846 6.33436 79.5638 6.6095C79.7749 6.34076 80.0405 6.1328 80.3604 5.98563C80.6867 5.83847 81.0419 5.76488 81.4258 5.76488ZM90.0815 5.84166V11.0054H88.661V10.3911C88.4626 10.6151 88.2259 10.7878 87.9508 10.9094C87.6756 11.0246 87.3781 11.0822 87.0581 11.0822C86.3799 11.0822 85.8424 10.887 85.4457 10.4967C85.049 10.1064 84.8506 9.52728 84.8506 8.75945V5.84166H86.3479V8.53869C86.3479 9.37052 86.6966 9.78643 87.3941 9.78643C87.7524 9.78643 88.0403 9.67125 88.2579 9.4409C88.4754 9.20415 88.5842 8.85543 88.5842 8.39472V5.84166H90.0815ZM94.6072 5.76488C95.247 5.76488 95.7621 5.95684 96.1524 6.34076C96.5492 6.72468 96.7475 7.29416 96.7475 8.0492V11.0054H95.2502V8.27955C95.2502 7.87004 95.1607 7.5661 94.9815 7.36774C94.8023 7.16299 94.5432 7.06061 94.2041 7.06061C93.8265 7.06061 93.5258 7.17898 93.3018 7.41573C93.0779 7.64608 92.9659 7.99161 92.9659 8.45231V11.0054H91.4686V5.84166H92.8987V6.44634C93.0971 6.22878 93.3434 6.06242 93.6378 5.94724C93.9321 5.82567 94.2552 5.76488 94.6072 5.76488ZM98.1047 5.84166H99.602V11.0054H98.1047V5.84166ZM98.8534 5.12182C98.5782 5.12182 98.3543 5.04183 98.1815 4.88187C98.0087 4.7219 97.9224 4.52354 97.9224 4.28679C97.9224 4.05004 98.0087 3.85169 98.1815 3.69172C98.3543 3.53175 98.5782 3.45177 98.8534 3.45177C99.1285 3.45177 99.3525 3.52856 99.5252 3.68212C99.698 3.83569 99.7844 4.02765 99.7844 4.258C99.7844 4.50755 99.698 4.7155 99.5252 4.88187C99.3525 5.04183 99.1285 5.12182 98.8534 5.12182ZM104.101 10.7558C103.954 10.8646 103.772 10.9478 103.554 11.0054C103.343 11.0566 103.122 11.0822 102.892 11.0822C102.271 11.0822 101.795 10.9254 101.462 10.6119C101.129 10.2983 100.963 9.83762 100.963 9.22975V4.69951H102.46V5.95684H103.737V7.1086H102.46V9.21055C102.46 9.42811 102.514 9.59767 102.623 9.71924C102.732 9.83442 102.889 9.89201 103.094 9.89201C103.324 9.89201 103.529 9.82802 103.708 9.70005L104.101 10.7558ZM110.149 5.84166V10.1416C110.149 11.0886 109.909 11.7924 109.429 12.2531C108.949 12.7138 108.252 12.9442 107.337 12.9442C106.851 12.9442 106.39 12.8834 105.955 12.7618C105.526 12.6402 105.165 12.4643 104.87 12.2339L105.465 11.1589C105.683 11.3381 105.948 11.4789 106.262 11.5812C106.575 11.6836 106.892 11.7348 107.212 11.7348C107.711 11.7348 108.076 11.6196 108.306 11.3893C108.537 11.1589 108.652 10.807 108.652 10.3335V10.1608C108.46 10.3527 108.233 10.4999 107.97 10.6023C107.708 10.7046 107.427 10.7558 107.126 10.7558C106.448 10.7558 105.91 10.5639 105.513 10.1799C105.117 9.78963 104.918 9.20735 104.918 8.43312V5.84166H106.416V8.21236C106.416 9.05059 106.764 9.4697 107.462 9.4697C107.82 9.4697 108.108 9.35452 108.326 9.12417C108.543 8.88742 108.652 8.53869 108.652 8.07799V5.84166H110.149ZM122.029 4.17162C122.822 4.17162 123.44 4.40517 123.881 4.87227C124.323 5.33297 124.543 6.00163 124.543 6.87825V11.0054H122.989V6.92624C122.989 6.45274 122.864 6.09761 122.614 5.86086C122.371 5.61771 122.048 5.49614 121.645 5.49614C121.203 5.49614 120.851 5.62411 120.589 5.88006C120.327 6.1296 120.196 6.51032 120.196 7.02221V11.0054H118.641V6.92624C118.641 6.45274 118.526 6.09761 118.295 5.86086C118.065 5.61771 117.751 5.49614 117.355 5.49614C116.919 5.49614 116.571 5.62411 116.308 5.88006C116.046 6.1296 115.915 6.51032 115.915 7.02221V11.0054H114.36V4.28679H115.867V5.11222C116.072 4.81148 116.344 4.58113 116.683 4.42117C117.022 4.2548 117.412 4.17162 117.854 4.17162C118.314 4.17162 118.717 4.258 119.063 4.43076C119.409 4.59713 119.674 4.84028 119.86 5.16021C120.09 4.84028 120.391 4.59713 120.762 4.43076C121.139 4.258 121.562 4.17162 122.029 4.17162ZM131.211 5.84166V11.0054H129.781V10.4103C129.41 10.8582 128.872 11.0822 128.169 11.0822C127.682 11.0822 127.241 10.9734 126.844 10.7558C126.454 10.5383 126.147 10.2279 125.923 9.82482C125.699 9.42171 125.587 8.95461 125.587 8.42352C125.587 7.89243 125.699 7.42533 125.923 7.02221C126.147 6.6191 126.454 6.30877 126.844 6.09121C127.241 5.87366 127.682 5.76488 128.169 5.76488C128.828 5.76488 129.343 5.97284 129.714 6.38875V5.84166H131.211ZM128.428 9.85362C128.805 9.85362 129.119 9.72564 129.368 9.4697C129.618 9.20735 129.743 8.85863 129.743 8.42352C129.743 7.98841 129.618 7.64288 129.368 7.38694C129.119 7.12459 128.805 6.99342 128.428 6.99342C128.044 6.99342 127.727 7.12459 127.478 7.38694C127.228 7.64288 127.103 7.98841 127.103 8.42352C127.103 8.85863 127.228 9.20735 127.478 9.4697C127.727 9.72564 128.044 9.85362 128.428 9.85362ZM135.736 5.76488C136.376 5.76488 136.891 5.95684 137.281 6.34076C137.678 6.72468 137.876 7.29416 137.876 8.0492V11.0054H136.379V8.27955C136.379 7.87004 136.289 7.5661 136.11 7.36774C135.931 7.16299 135.672 7.06061 135.333 7.06061C134.955 7.06061 134.655 7.17898 134.431 7.41573C134.207 7.64608 134.095 7.99161 134.095 8.45231V11.0054H132.597V5.84166H134.028V6.44634C134.226 6.22878 134.472 6.06242 134.767 5.94724C135.061 5.82567 135.384 5.76488 135.736 5.76488ZM144.53 5.84166V11.0054H143.1V10.4103C142.729 10.8582 142.192 11.0822 141.488 11.0822C141.001 11.0822 140.56 10.9734 140.163 10.7558C139.773 10.5383 139.466 10.2279 139.242 9.82482C139.018 9.42171 138.906 8.95461 138.906 8.42352C138.906 7.89243 139.018 7.42533 139.242 7.02221C139.466 6.6191 139.773 6.30877 140.163 6.09121C140.56 5.87366 141.001 5.76488 141.488 5.76488C142.147 5.76488 142.662 5.97284 143.033 6.38875V5.84166H144.53ZM141.747 9.85362C142.124 9.85362 142.438 9.72564 142.687 9.4697C142.937 9.20735 143.062 8.85863 143.062 8.42352C143.062 7.98841 142.937 7.64288 142.687 7.38694C142.438 7.12459 142.124 6.99342 141.747 6.99342C141.363 6.99342 141.046 7.12459 140.797 7.38694C140.547 7.64288 140.422 7.98841 140.422 8.42352C140.422 8.85863 140.547 9.20735 140.797 9.4697C141.046 9.72564 141.363 9.85362 141.747 9.85362ZM151.243 5.84166V10.1416C151.243 11.0886 150.997 11.7924 150.504 12.2531C150.012 12.7138 149.292 12.9442 148.345 12.9442C147.846 12.9442 147.372 12.8834 146.924 12.7618C146.476 12.6402 146.105 12.4643 145.811 12.2339L146.406 11.1589C146.624 11.3381 146.899 11.4789 147.231 11.5812C147.564 11.69 147.897 11.7444 148.23 11.7444C148.748 11.7444 149.129 11.626 149.372 11.3893C149.621 11.1589 149.746 10.807 149.746 10.3335V10.1128C149.356 10.5415 148.812 10.7558 148.114 10.7558C147.641 10.7558 147.206 10.6534 146.809 10.4487C146.419 10.2375 146.108 9.9432 145.878 9.56568C145.648 9.18816 145.533 8.75305 145.533 8.26035C145.533 7.76766 145.648 7.33255 145.878 6.95503C146.108 6.57751 146.419 6.28637 146.809 6.08161C147.206 5.87046 147.641 5.76488 148.114 5.76488C148.863 5.76488 149.433 6.01123 149.823 6.50392V5.84166H151.243ZM148.412 9.52728C148.809 9.52728 149.132 9.41211 149.381 9.18176C149.637 8.94501 149.765 8.63787 149.765 8.26035C149.765 7.88283 149.637 7.5789 149.381 7.34855C149.132 7.1118 148.809 6.99342 148.412 6.99342C148.015 6.99342 147.689 7.1118 147.433 7.34855C147.177 7.5789 147.049 7.88283 147.049 8.26035C147.049 8.63787 147.177 8.94501 147.433 9.18176C147.689 9.41211 148.015 9.52728 148.412 9.52728ZM155.238 9.88241C155.507 9.88241 155.743 9.84402 155.948 9.76723C156.159 9.68405 156.355 9.55608 156.534 9.38331L157.33 10.2471C156.844 10.8038 156.134 11.0822 155.2 11.0822C154.617 11.0822 154.102 10.9702 153.654 10.7462C153.206 10.5159 152.861 10.1991 152.618 9.79603C152.375 9.39291 152.253 8.93541 152.253 8.42352C152.253 7.91803 152.371 7.46372 152.608 7.06061C152.851 6.65109 153.181 6.33436 153.597 6.11041C154.019 5.88006 154.493 5.76488 155.017 5.76488C155.51 5.76488 155.958 5.87046 156.361 6.08161C156.764 6.28637 157.084 6.58711 157.321 6.98382C157.564 7.37414 157.685 7.83804 157.685 8.37553L153.865 9.11457C153.974 9.37052 154.144 9.56248 154.374 9.69045C154.611 9.81842 154.899 9.88241 155.238 9.88241ZM155.017 6.89744C154.64 6.89744 154.333 7.01902 154.096 7.26216C153.859 7.50531 153.734 7.84124 153.721 8.26995L156.236 7.78045C156.166 7.51171 156.022 7.29736 155.804 7.13739C155.587 6.97742 155.324 6.89744 155.017 6.89744ZM160.122 6.52312C160.301 6.27357 160.541 6.08481 160.842 5.95684C161.149 5.82887 161.501 5.76488 161.898 5.76488V7.14699C161.731 7.13419 161.619 7.12779 161.562 7.12779C161.133 7.12779 160.797 7.24937 160.554 7.49252C160.311 7.72927 160.189 8.08759 160.189 8.56749V11.0054H158.692V5.84166H160.122V6.52312Z" fill="black"/>
</svg>
