<svg width="73" height="73" viewBox="0 0 73 73" fill="none" xmlns="http://www.w3.org/2000/svg">
<path d="M62.5522 42.7775C59.7778 42.0652 55.1038 41.3028 53.3792 40.1281C52.6668 39.6407 52.7543 39.1033 52.8793 38.7284C53.0042 38.3784 53.7166 38.016 54.154 38.041C55.1413 38.0785 56.1286 38.291 57.0784 38.5534C59.1904 39.1283 61.29 39.7282 63.3645 40.4155C64.4643 40.7779 64.8142 41.6153 64.1769 42.1526C63.802 42.4651 63.452 42.7775 62.5522 42.7775Z" fill="#CD4631"/>
<path d="M18.8113 62.0861C18.9362 61.4238 19.1862 61.0738 19.5486 60.5615C20.9608 58.5869 22.4355 56.6498 23.8852 54.7127C23.9727 54.6002 24.0726 54.4752 24.1851 54.3878C24.685 53.9629 25.2474 53.463 25.8973 53.9254C26.5471 54.4003 26.3222 55.1001 25.9722 55.6625C24.5225 58.0245 23.0479 60.374 21.5482 62.711C21.3232 63.0734 20.9358 63.3859 20.5484 63.5733C19.5861 64.0357 18.7363 63.3984 18.8113 62.0861Z" fill="#CD4631"/>
<path d="M50.0417 61.6488C50.0417 62.2112 49.6043 62.6111 49.2793 62.6736C48.8419 62.7611 48.467 62.6861 47.8421 62.2612C47.6297 62.1237 47.5047 61.7863 47.3797 61.5239C46.4674 59.5493 45.5426 57.5872 44.6553 55.6001C44.4303 55.1127 44.2054 54.5503 44.2429 54.0379C44.2804 53.5755 44.5678 52.9132 44.9427 52.7507C45.3052 52.5882 45.7926 52.5383 46.3674 53.1006C46.5799 53.3006 46.7799 53.638 46.9173 53.9505C47.8171 56.0375 48.7169 58.1246 49.5918 60.2241C49.7542 60.624 49.8542 61.0615 50.0417 61.6488Z" fill="#CD4631"/>
<path d="M10.3754 44.4273C9.80055 44.2649 9.42563 43.9899 9.33815 43.615C9.22567 43.1401 9.46312 42.5027 9.73806 42.0528C9.95052 41.7154 10.4379 41.503 10.8503 41.3655C12.9124 40.6781 14.9869 40.0033 17.074 39.3659C17.4239 39.2534 17.8738 39.2159 18.2113 39.3284C18.7611 39.5159 18.9986 39.9533 18.5487 40.4782C18.2987 40.7781 18.0113 41.0905 17.6739 41.253C15.7243 42.2278 13.7622 43.1651 11.7876 44.0899C11.4252 44.2524 10.9378 44.6023 10.3754 44.4273Z" fill="#CD4631"/>
<path d="M52.7162 22.982C52.4412 22.8695 52.2038 22.4196 52.1913 22.1197C52.1788 21.7073 52.3038 21.2074 52.5537 20.87C53.716 19.2703 54.9407 17.6956 56.1529 16.1335C56.3279 15.896 56.5654 15.7085 56.8028 15.5211C57.3402 15.1087 58.04 14.7462 58.5149 15.3711C58.7899 15.7335 58.8774 16.6583 58.6149 16.9708C57.0153 18.9204 55.2906 20.7825 53.5785 22.6446C53.441 22.807 53.1661 23.0695 52.7162 22.982Z" fill="#CD4631"/>
<path d="M12.65 20.27C13.3499 20.4825 13.8873 20.6074 14.3997 20.7949C15.8869 21.3323 17.374 21.8822 18.8487 22.4446C19.2611 22.607 19.6986 22.7695 20.036 23.0319C20.2734 23.2194 20.5359 23.6943 20.4484 23.8693C20.2984 24.1567 20.0735 24.5191 19.5611 24.4816C19.3486 24.4691 19.0737 24.4566 18.8362 24.3941C17.1616 23.9442 15.4869 23.5193 13.8248 23.0194C13.2624 22.857 12.675 22.6195 12.2251 22.2571C11.9002 21.9947 11.6003 21.4073 11.6877 21.0574C11.7627 20.7324 12.0377 20.27 12.65 20.27Z" fill="#CD4631"/>
<path d="M35.5201 15.0959C35.5076 15.2459 35.4951 15.3959 35.4451 15.5333C35.2327 16.1457 35.0952 16.8331 34.2329 16.7706C33.3206 16.7081 33.2831 15.9582 33.2956 15.3459C33.3331 13.8712 33.4705 12.3965 33.583 10.9093C33.633 10.3719 33.6955 9.82204 33.8455 9.30965C33.9954 8.78476 34.2079 8.24737 34.9327 8.33486C35.6076 8.42234 35.8325 8.87224 35.845 9.47212C35.845 10.122 35.6451 13.8712 35.5201 15.0959Z" fill="#CD4631"/>
</svg>
